<svg width="20" height="20" viewBox="0 0 20 20" fill="none" xmlns="http://www.w3.org/2000/svg">
<path fill-rule="evenodd" clip-rule="evenodd" d="M1.25 5.5C1.25 4.25736 2.25736 3.25 3.5 3.25H16.5C17.7426 3.25 18.75 4.25736 18.75 5.5V14.5C18.75 15.7426 17.7426 16.75 16.5 16.75H3.5C2.25736 16.75 1.25 15.7426 1.25 14.5V5.5ZM3.5 4.75C3.08578 4.75 2.75 5.08579 2.75 5.5V14.5C2.75 14.9142 3.08578 15.25 3.5 15.25H16.5C16.9142 15.25 17.25 14.9142 17.25 14.5V5.5C17.25 5.08579 16.9142 4.75 16.5 4.75H3.5Z" fill="#09112B"/>
<path fill-rule="evenodd" clip-rule="evenodd" d="M1.34625 5.63243C1.54925 5.27137 2.00651 5.14324 2.36757 5.34625L8.77954 8.9514C9.48747 9.3495 10.5125 9.34953 11.2204 8.95142L17.6324 5.34625C17.9935 5.14324 18.4507 5.27137 18.6537 5.63243C18.8568 5.99348 18.7286 6.45075 18.3676 6.65375L11.9556 10.2589C11.9556 10.2589 11.9557 10.2589 11.9556 10.2589C10.7912 10.9137 9.20885 10.9137 8.04439 10.2589C8.04437 10.2589 8.0444 10.2589 8.04439 10.2589L1.63242 6.65375C1.27137 6.45075 1.14324 5.99348 1.34625 5.63243Z" fill="#09112B"/>
</svg>
