<svg width="20" height="20" viewBox="0 0 20 20" fill="none" xmlns="http://www.w3.org/2000/svg">
<path d="M13.9405 18.6C13.0405 18.6 12.2405 18.4 11.4405 17.9C7.54045 15.2 4.34045 12 1.74045 8.1C0.540454 6.2 0.840454 3.8 2.34045 2.2L2.84045 1.6C3.64045 0.8 4.94045 0.8 5.74045 1.6L8.04045 3.9C8.44045 4.3 8.64045 4.8 8.64045 5.4C8.64045 6 8.44045 6.5 8.04045 6.9C7.84045 7.1 7.84045 7.5 8.04045 7.7L11.7405 11.4C11.9405 11.6 12.3405 11.6 12.5405 11.4C13.3405 10.6 14.6405 10.6 15.4405 11.4L17.7405 13.7C18.5405 14.5 18.5405 15.8 17.7405 16.6L17.1405 17.2C16.3405 18.1 15.1405 18.6 13.9405 18.6ZM12.2405 16.6C13.5405 17.4 15.1405 17.2 16.2405 16.2L16.8405 15.6C17.0405 15.4 17.0405 15 16.8405 14.8L14.5405 12.5C14.3405 12.3 13.9405 12.3 13.7405 12.5C12.9405 13.3 11.6405 13.3 10.8405 12.5L7.04045 8.8C6.24045 8 6.24045 6.7 7.04045 5.9C7.14045 5.8 7.24045 5.7 7.24045 5.5C7.24045 5.4 7.14045 5.2 7.04045 5.1L4.74045 2.8C4.54045 2.5 4.14045 2.5 3.94045 2.8L3.34045 3.3C2.34045 4.4 2.14045 6 2.94045 7.3C5.44045 11 8.54045 14.1 12.2405 16.6Z" fill="#09112B"/>
</svg>
