<svg width="20" height="20" viewBox="0 0 20 20" fill="none" xmlns="http://www.w3.org/2000/svg">
<path fill-rule="evenodd" clip-rule="evenodd" d="M7.25 8C7.25 6.48122 8.48122 5.25 10 5.25C11.5188 5.25 12.75 6.48122 12.75 8C12.75 9.51878 11.5188 10.75 10 10.75C8.48122 10.75 7.25 9.51878 7.25 8ZM10 6.75C9.30964 6.75 8.75 7.30964 8.75 8C8.75 8.69036 9.30964 9.25 10 9.25C10.6904 9.25 11.25 8.69036 11.25 8C11.25 7.30964 10.6904 6.75 10 6.75Z" fill="#09112B"/>
<path fill-rule="evenodd" clip-rule="evenodd" d="M10 2.75C7.01501 2.75 4.75 4.8826 4.75 7.33323C4.75 8.34905 5.07952 9.48668 5.61847 10.6544C6.15431 11.8154 6.8757 12.9604 7.60865 13.9784C8.34015 14.9944 9.07329 15.8703 9.62407 16.4925C9.76204 16.6483 9.88833 16.788 10 16.9097C10.1117 16.788 10.238 16.6483 10.3759 16.4925C10.9267 15.8703 11.6598 14.9944 12.3913 13.9784C13.1243 12.9604 13.8457 11.8154 14.3815 10.6544C14.9205 9.48668 15.25 8.34905 15.25 7.33323C15.25 4.8826 12.985 2.75 10 2.75ZM10 18L10.5303 18.5303C10.2374 18.8232 9.76256 18.8232 9.46967 18.5303L10 18ZM3.25 7.33323C3.25 3.89294 6.35758 1.25 10 1.25C13.6424 1.25 16.75 3.89294 16.75 7.33323C16.75 8.6508 16.3295 10.0132 15.7435 11.283C15.1543 12.5595 14.3757 13.7895 13.6087 14.8549C12.8402 15.9222 12.0733 16.8381 11.4991 17.4867C11.2116 17.8115 10.9714 18.0703 10.8023 18.2489C10.7177 18.3382 10.6507 18.4075 10.6045 18.455L10.5508 18.5097L10.5363 18.5243L10.5322 18.5284L10.5303 18.5303C10.5303 18.5303 10.5303 18.5303 10 18C9.46967 18.5303 9.46967 18.5303 9.46967 18.5303L9.46777 18.5284L9.46369 18.5243L9.44916 18.5097L9.39554 18.455C9.34925 18.4075 9.28233 18.3382 9.19772 18.2489C9.02855 18.0703 8.78841 17.8115 8.50093 17.4867C7.92671 16.8381 7.15985 15.9222 6.39135 14.8549C5.6243 13.7895 4.84569 12.5595 4.25653 11.283C3.67048 10.0132 3.25 8.6508 3.25 7.33323Z" fill="#09112B"/>
</svg>
